<svg width="21" height="22" viewBox="0 0 21 22" fill="none" xmlns="http://www.w3.org/2000/svg">
<g clip-path="url(#clip0_10_3946)">
<path d="M7.46408 6.1313L14.715 5.9639C14.9118 5.96393 15.0804 6.03422 15.221 6.17477C15.3615 6.31531 15.4318 6.48395 15.4318 6.68068L15.2644 13.9316C15.2083 14.3813 14.9694 14.6202 14.5479 14.6482C14.0982 14.5919 13.8593 14.353 13.8311 13.9314L13.9566 8.45103L6.79117 15.6165C6.45396 15.8975 6.11671 15.8974 5.77941 15.6163C5.4983 15.279 5.49825 14.9418 5.77924 14.6046L12.9447 7.43909L7.46433 7.56464C7.04275 7.53646 6.80382 7.29753 6.74754 6.84785C6.77557 6.42629 7.01442 6.18744 7.46408 6.1313Z" fill="white"/>
</g>
<defs>
<clipPath id="clip0_10_3946">
<rect width="13.3524" height="15.265" fill="white" transform="matrix(0.707107 -0.707107 -0.707107 -0.707107 11.1763 21.0134)"/>
</clipPath>
</defs>
</svg>
